<mxfile host="app.diagrams.net" modified="2021-08-07T07:37:33.733Z" agent="5.0 (Windows NT 10.0; Win64; x64) AppleWebKit/537.36 (KHTML, like Gecko) Chrome/92.0.4515.131 Safari/537.36" etag="Cavh9TTtjojGr19GIzYf" version="14.9.4" type="github">
  <diagram id="GjpOPS8GUbDMK-W_BYCK" name="Page-1">
    <mxGraphModel dx="1221" dy="622" grid="1" gridSize="10" guides="1" tooltips="1" connect="1" arrows="1" fold="1" page="1" pageScale="1" pageWidth="850" pageHeight="1100" math="0" shadow="0">
      <root>
        <mxCell id="0" />
        <mxCell id="1" parent="0" />
        <mxCell id="yhknBi5prWKLQfZ3NRB1-78" style="edgeStyle=orthogonalEdgeStyle;rounded=0;orthogonalLoop=1;jettySize=auto;html=1;entryX=0.75;entryY=0;entryDx=0;entryDy=0;" edge="1" parent="1" target="yhknBi5prWKLQfZ3NRB1-43">
          <mxGeometry relative="1" as="geometry">
            <mxPoint x="470" y="180" as="sourcePoint" />
            <Array as="points">
              <mxPoint x="470" y="180" />
              <mxPoint x="470" y="180" />
            </Array>
          </mxGeometry>
        </mxCell>
        <mxCell id="5hr4HWsf4Ftkd_aSTjP--69" value="&lt;font style=&quot;font-size: 22px&quot;&gt;&lt;b&gt;Gadget&lt;/b&gt;&lt;/font&gt;" style="ellipse;shape=cloud;whiteSpace=wrap;html=1;" parent="1" vertex="1">
          <mxGeometry x="334.17" y="10" width="221.67" height="166.25" as="geometry" />
        </mxCell>
        <mxCell id="5hr4HWsf4Ftkd_aSTjP--40" value="" style="endArrow=none;dashed=1;html=1;" parent="1" edge="1">
          <mxGeometry x="40" y="230" width="50" height="50" as="geometry">
            <mxPoint x="40" y="870" as="sourcePoint" />
            <mxPoint x="40" y="860" as="targetPoint" />
            <Array as="points">
              <mxPoint x="280" y="870" />
              <mxPoint x="280" y="230" />
              <mxPoint x="40" y="230" />
            </Array>
          </mxGeometry>
        </mxCell>
        <mxCell id="5hr4HWsf4Ftkd_aSTjP--1" value="Sensor" style="ellipse;whiteSpace=wrap;html=1;aspect=fixed;rotation=0;" parent="1" vertex="1">
          <mxGeometry x="90" y="805" width="40" height="40" as="geometry" />
        </mxCell>
        <mxCell id="5hr4HWsf4Ftkd_aSTjP--2" value="Sensor" style="ellipse;whiteSpace=wrap;html=1;aspect=fixed;rotation=0;" parent="1" vertex="1">
          <mxGeometry x="145" y="805" width="40" height="40" as="geometry" />
        </mxCell>
        <mxCell id="5hr4HWsf4Ftkd_aSTjP--3" value="Sensor" style="ellipse;whiteSpace=wrap;html=1;aspect=fixed;rotation=0;" parent="1" vertex="1">
          <mxGeometry x="200" y="805" width="40" height="40" as="geometry" />
        </mxCell>
        <mxCell id="5hr4HWsf4Ftkd_aSTjP--9" style="edgeStyle=orthogonalEdgeStyle;rounded=0;orthogonalLoop=1;jettySize=auto;html=1;exitX=0.5;exitY=0;exitDx=0;exitDy=0;entryX=0.5;entryY=1;entryDx=0;entryDy=0;" parent="1" source="5hr4HWsf4Ftkd_aSTjP--1" target="5hr4HWsf4Ftkd_aSTjP--4" edge="1">
          <mxGeometry x="70" y="260" as="geometry" />
        </mxCell>
        <mxCell id="5hr4HWsf4Ftkd_aSTjP--10" style="edgeStyle=orthogonalEdgeStyle;rounded=0;orthogonalLoop=1;jettySize=auto;html=1;exitX=0.5;exitY=0;exitDx=0;exitDy=0;entryX=0.5;entryY=1;entryDx=0;entryDy=0;" parent="1" source="5hr4HWsf4Ftkd_aSTjP--2" target="5hr4HWsf4Ftkd_aSTjP--4" edge="1">
          <mxGeometry x="70" y="260" as="geometry" />
        </mxCell>
        <mxCell id="5hr4HWsf4Ftkd_aSTjP--11" style="edgeStyle=orthogonalEdgeStyle;rounded=0;orthogonalLoop=1;jettySize=auto;html=1;exitX=0.5;exitY=0;exitDx=0;exitDy=0;entryX=0.5;entryY=1;entryDx=0;entryDy=0;" parent="1" source="5hr4HWsf4Ftkd_aSTjP--3" target="5hr4HWsf4Ftkd_aSTjP--4" edge="1">
          <mxGeometry x="70" y="260" as="geometry" />
        </mxCell>
        <mxCell id="yhknBi5prWKLQfZ3NRB1-5" style="edgeStyle=orthogonalEdgeStyle;rounded=0;orthogonalLoop=1;jettySize=auto;html=1;exitX=0.25;exitY=0;exitDx=0;exitDy=0;entryX=0.214;entryY=1.068;entryDx=0;entryDy=0;entryPerimeter=0;" edge="1" parent="1" source="5hr4HWsf4Ftkd_aSTjP--4" target="5hr4HWsf4Ftkd_aSTjP--12">
          <mxGeometry relative="1" as="geometry" />
        </mxCell>
        <mxCell id="5hr4HWsf4Ftkd_aSTjP--4" value="ESP32" style="shape=process;whiteSpace=wrap;html=1;backgroundOutline=1;rotation=0;" parent="1" vertex="1">
          <mxGeometry x="100" y="700" width="130" height="40" as="geometry" />
        </mxCell>
        <mxCell id="yhknBi5prWKLQfZ3NRB1-3" style="edgeStyle=orthogonalEdgeStyle;rounded=0;orthogonalLoop=1;jettySize=auto;html=1;exitX=0.625;exitY=1;exitDx=0;exitDy=0;entryX=0.582;entryY=-0.035;entryDx=0;entryDy=0;entryPerimeter=0;" edge="1" parent="1" source="5hr4HWsf4Ftkd_aSTjP--12" target="5hr4HWsf4Ftkd_aSTjP--4">
          <mxGeometry relative="1" as="geometry">
            <Array as="points">
              <mxPoint x="176" y="640" />
            </Array>
          </mxGeometry>
        </mxCell>
        <mxCell id="5hr4HWsf4Ftkd_aSTjP--12" value="Firebase" style="shape=hexagon;perimeter=hexagonPerimeter2;whiteSpace=wrap;html=1;fixedSize=1;size=15;" parent="1" vertex="1">
          <mxGeometry x="115" y="590" width="85" height="50" as="geometry" />
        </mxCell>
        <mxCell id="yhknBi5prWKLQfZ3NRB1-1" style="edgeStyle=orthogonalEdgeStyle;rounded=0;orthogonalLoop=1;jettySize=auto;html=1;exitX=0.75;exitY=1;exitDx=0;exitDy=0;entryX=0.732;entryY=0.012;entryDx=0;entryDy=0;entryPerimeter=0;" edge="1" parent="1" source="5hr4HWsf4Ftkd_aSTjP--15" target="5hr4HWsf4Ftkd_aSTjP--12">
          <mxGeometry relative="1" as="geometry">
            <Array as="points">
              <mxPoint x="177" y="520" />
            </Array>
          </mxGeometry>
        </mxCell>
        <mxCell id="yhknBi5prWKLQfZ3NRB1-7" style="edgeStyle=orthogonalEdgeStyle;rounded=0;orthogonalLoop=1;jettySize=auto;html=1;exitX=0.25;exitY=0;exitDx=0;exitDy=0;entryX=0.204;entryY=1.062;entryDx=0;entryDy=0;entryPerimeter=0;" edge="1" parent="1" source="5hr4HWsf4Ftkd_aSTjP--15" target="5hr4HWsf4Ftkd_aSTjP--21">
          <mxGeometry relative="1" as="geometry">
            <mxPoint x="135" y="420" as="targetPoint" />
          </mxGeometry>
        </mxCell>
        <mxCell id="5hr4HWsf4Ftkd_aSTjP--15" value="Raspberry Pi" style="shape=parallelogram;perimeter=parallelogramPerimeter;whiteSpace=wrap;html=1;fixedSize=1;" parent="1" vertex="1">
          <mxGeometry x="105" y="460" width="120" height="60" as="geometry" />
        </mxCell>
        <mxCell id="5hr4HWsf4Ftkd_aSTjP--22" style="edgeStyle=orthogonalEdgeStyle;rounded=0;orthogonalLoop=1;jettySize=auto;html=1;exitX=0.375;exitY=0;exitDx=0;exitDy=0;entryX=0.25;entryY=1;entryDx=0;entryDy=0;" parent="1" source="5hr4HWsf4Ftkd_aSTjP--12" target="5hr4HWsf4Ftkd_aSTjP--15" edge="1">
          <mxGeometry x="100" y="260" as="geometry">
            <Array as="points">
              <mxPoint x="135" y="590" />
            </Array>
          </mxGeometry>
        </mxCell>
        <mxCell id="yhknBi5prWKLQfZ3NRB1-8" style="edgeStyle=orthogonalEdgeStyle;rounded=0;orthogonalLoop=1;jettySize=auto;html=1;exitX=0.75;exitY=1;exitDx=0;exitDy=0;entryX=0.71;entryY=0;entryDx=0;entryDy=0;entryPerimeter=0;" edge="1" parent="1" source="5hr4HWsf4Ftkd_aSTjP--21" target="5hr4HWsf4Ftkd_aSTjP--15">
          <mxGeometry relative="1" as="geometry" />
        </mxCell>
        <mxCell id="5hr4HWsf4Ftkd_aSTjP--21" value="Node-Red" style="rounded=1;whiteSpace=wrap;html=1;" parent="1" vertex="1">
          <mxGeometry x="115" y="360" width="100" height="50" as="geometry" />
        </mxCell>
        <mxCell id="5hr4HWsf4Ftkd_aSTjP--39" style="edgeStyle=orthogonalEdgeStyle;rounded=0;orthogonalLoop=1;jettySize=auto;html=1;entryX=0.697;entryY=0.02;entryDx=0;entryDy=0;entryPerimeter=0;" parent="1" target="5hr4HWsf4Ftkd_aSTjP--21" edge="1">
          <mxGeometry x="100" y="260" as="geometry">
            <mxPoint x="330" y="100" as="sourcePoint" />
          </mxGeometry>
        </mxCell>
        <mxCell id="5hr4HWsf4Ftkd_aSTjP--38" style="edgeStyle=orthogonalEdgeStyle;rounded=0;orthogonalLoop=1;jettySize=auto;html=1;exitX=0.25;exitY=0;exitDx=0;exitDy=0;" parent="1" source="5hr4HWsf4Ftkd_aSTjP--21" edge="1">
          <mxGeometry x="100" y="260" as="geometry">
            <mxPoint x="330" y="84" as="targetPoint" />
            <Array as="points">
              <mxPoint x="140" y="84" />
            </Array>
          </mxGeometry>
        </mxCell>
        <mxCell id="5hr4HWsf4Ftkd_aSTjP--97" style="edgeStyle=orthogonalEdgeStyle;rounded=0;orthogonalLoop=1;jettySize=auto;html=1;" parent="1" source="5hr4HWsf4Ftkd_aSTjP--69" edge="1">
          <mxGeometry x="1215" y="690" as="geometry">
            <mxPoint x="570" y="71" as="sourcePoint" />
            <mxPoint x="750" y="361" as="targetPoint" />
            <Array as="points">
              <mxPoint x="750" y="71" />
            </Array>
          </mxGeometry>
        </mxCell>
        <mxCell id="5hr4HWsf4Ftkd_aSTjP--99" style="edgeStyle=orthogonalEdgeStyle;rounded=0;orthogonalLoop=1;jettySize=auto;html=1;exitX=0.25;exitY=0;exitDx=0;exitDy=0;" parent="1" source="yhknBi5prWKLQfZ3NRB1-69" edge="1">
          <mxGeometry x="1260" y="680" as="geometry">
            <mxPoint x="550" y="90" as="targetPoint" />
            <Array as="points">
              <mxPoint x="700" y="90" />
            </Array>
            <mxPoint x="690" y="350" as="sourcePoint" />
          </mxGeometry>
        </mxCell>
        <mxCell id="5hr4HWsf4Ftkd_aSTjP--103" value="&lt;b&gt;&lt;font style=&quot;font-size: 20px&quot;&gt;Building A&lt;/font&gt;&lt;/b&gt;" style="text;html=1;align=center;verticalAlign=middle;resizable=0;points=[];autosize=1;" parent="1" vertex="1">
          <mxGeometry x="110" y="890" width="110" height="20" as="geometry" />
        </mxCell>
        <mxCell id="5hr4HWsf4Ftkd_aSTjP--108" value="&lt;div style=&quot;text-align: justify&quot;&gt;&lt;span&gt;ESP32 start dan memulai proses measurement arus listrik yang kemudian data dari hasil pengukuran dikirim menuju firebase melalui protokol HTTP.&lt;/span&gt;&lt;/div&gt;&lt;div style=&quot;text-align: justify&quot;&gt;&lt;span&gt;Data yang terkirim akan disimpan kedalam Firebase Cloud, data tersebut kemudian bisa diakses oleh&amp;nbsp;&lt;/span&gt;&lt;/div&gt;" style="text;html=1;align=left;verticalAlign=middle;resizable=0;points=[];autosize=1;fillColor=#fff2cc;strokeColor=#d6b656;" parent="1" vertex="1">
          <mxGeometry x="15" y="980" width="810" height="30" as="geometry" />
        </mxCell>
        <mxCell id="yhknBi5prWKLQfZ3NRB1-16" value="" style="group" vertex="1" connectable="0" parent="1">
          <mxGeometry y="535" width="120" height="50" as="geometry" />
        </mxCell>
        <mxCell id="yhknBi5prWKLQfZ3NRB1-10" value="Communication" style="swimlane;startSize=23;" vertex="1" parent="yhknBi5prWKLQfZ3NRB1-16">
          <mxGeometry x="20" y="4.17" width="100" height="41.66666666666667" as="geometry">
            <mxRectangle width="120" height="23" as="alternateBounds" />
          </mxGeometry>
        </mxCell>
        <mxCell id="yhknBi5prWKLQfZ3NRB1-15" value="Firebase Node" style="text;html=1;align=center;verticalAlign=middle;resizable=0;points=[];autosize=1;strokeColor=none;" vertex="1" parent="yhknBi5prWKLQfZ3NRB1-10">
          <mxGeometry x="5" y="25.000000000000004" width="90" height="20" as="geometry" />
        </mxCell>
        <mxCell id="yhknBi5prWKLQfZ3NRB1-14" value="&lt;span style=&quot;color: rgba(0 , 0 , 0 , 0) ; font-family: monospace ; font-size: 0px&quot;&gt;%3CmxGraphModel%3E%3Croot%3E%3CmxCell%20id%3D%220%22%2F%3E%3CmxCell%20id%3D%221%22%20parent%3D%220%22%2F%3E%3CmxCell%20id%3D%222%22%20value%3D%22Firebase%20Node%22%20style%3D%22text%3Bhtml%3D1%3Balign%3Dcenter%3BverticalAlign%3Dmiddle%3Bresizable%3D0%3Bpoints%3D%5B%5D%3Bautosize%3D1%3B%22%20vertex%3D%221%22%20parent%3D%221%22%3E%3CmxGeometry%20x%3D%22185%22%20y%3D%22550%22%20width%3D%2290%22%20height%3D%2220%22%20as%3D%22geometry%22%2F%3E%3C%2FmxCell%3E%3C%2Froot%3E%3C%2FmxGraphModel%3EF&lt;/span&gt;" style="text;html=1;align=center;verticalAlign=middle;resizable=0;points=[];autosize=1;strokeColor=none;" vertex="1" parent="yhknBi5prWKLQfZ3NRB1-16">
          <mxGeometry x="44" y="25" width="20" height="20" as="geometry" />
        </mxCell>
        <mxCell id="yhknBi5prWKLQfZ3NRB1-22" value="" style="group" vertex="1" connectable="0" parent="1">
          <mxGeometry y="640" width="120" height="50" as="geometry" />
        </mxCell>
        <mxCell id="yhknBi5prWKLQfZ3NRB1-23" value="Communication" style="swimlane;startSize=23;" vertex="1" parent="yhknBi5prWKLQfZ3NRB1-22">
          <mxGeometry x="20" y="4.17" width="100" height="45" as="geometry">
            <mxRectangle width="120" height="23" as="alternateBounds" />
          </mxGeometry>
        </mxCell>
        <mxCell id="yhknBi5prWKLQfZ3NRB1-24" value="HTTP" style="text;html=1;align=center;verticalAlign=middle;resizable=0;points=[];autosize=1;strokeColor=none;" vertex="1" parent="yhknBi5prWKLQfZ3NRB1-23">
          <mxGeometry x="25" y="25.000000000000004" width="50" height="20" as="geometry" />
        </mxCell>
        <mxCell id="yhknBi5prWKLQfZ3NRB1-25" value="&lt;span style=&quot;color: rgba(0 , 0 , 0 , 0) ; font-family: monospace ; font-size: 0px&quot;&gt;%3CmxGraphModel%3E%3Croot%3E%3CmxCell%20id%3D%220%22%2F%3E%3CmxCell%20id%3D%221%22%20parent%3D%220%22%2F%3E%3CmxCell%20id%3D%222%22%20value%3D%22Firebase%20Node%22%20style%3D%22text%3Bhtml%3D1%3Balign%3Dcenter%3BverticalAlign%3Dmiddle%3Bresizable%3D0%3Bpoints%3D%5B%5D%3Bautosize%3D1%3B%22%20vertex%3D%221%22%20parent%3D%221%22%3E%3CmxGeometry%20x%3D%22185%22%20y%3D%22550%22%20width%3D%2290%22%20height%3D%2220%22%20as%3D%22geometry%22%2F%3E%3C%2FmxCell%3E%3C%2Froot%3E%3C%2FmxGraphModel%3EF&lt;/span&gt;" style="text;html=1;align=center;verticalAlign=middle;resizable=0;points=[];autosize=1;strokeColor=none;" vertex="1" parent="yhknBi5prWKLQfZ3NRB1-22">
          <mxGeometry x="44" y="25" width="20" height="20" as="geometry" />
        </mxCell>
        <mxCell id="yhknBi5prWKLQfZ3NRB1-27" value="" style="endArrow=none;dashed=1;html=1;" edge="1" parent="1">
          <mxGeometry x="320" y="230" width="50" height="50" as="geometry">
            <mxPoint x="320" y="869.9999999999998" as="sourcePoint" />
            <mxPoint x="320" y="859.9999999999998" as="targetPoint" />
            <Array as="points">
              <mxPoint x="560" y="870" />
              <mxPoint x="560" y="230" />
              <mxPoint x="320" y="230" />
            </Array>
          </mxGeometry>
        </mxCell>
        <mxCell id="yhknBi5prWKLQfZ3NRB1-28" value="Sensor" style="ellipse;whiteSpace=wrap;html=1;aspect=fixed;rotation=0;" vertex="1" parent="1">
          <mxGeometry x="370" y="805" width="40" height="40" as="geometry" />
        </mxCell>
        <mxCell id="yhknBi5prWKLQfZ3NRB1-29" value="Sensor" style="ellipse;whiteSpace=wrap;html=1;aspect=fixed;rotation=0;" vertex="1" parent="1">
          <mxGeometry x="425" y="805" width="40" height="40" as="geometry" />
        </mxCell>
        <mxCell id="yhknBi5prWKLQfZ3NRB1-30" value="Sensor" style="ellipse;whiteSpace=wrap;html=1;aspect=fixed;rotation=0;" vertex="1" parent="1">
          <mxGeometry x="480" y="805" width="40" height="40" as="geometry" />
        </mxCell>
        <mxCell id="yhknBi5prWKLQfZ3NRB1-31" style="edgeStyle=orthogonalEdgeStyle;rounded=0;orthogonalLoop=1;jettySize=auto;html=1;exitX=0.5;exitY=0;exitDx=0;exitDy=0;entryX=0.5;entryY=1;entryDx=0;entryDy=0;" edge="1" parent="1" source="yhknBi5prWKLQfZ3NRB1-28" target="yhknBi5prWKLQfZ3NRB1-35">
          <mxGeometry x="350" y="260" as="geometry" />
        </mxCell>
        <mxCell id="yhknBi5prWKLQfZ3NRB1-32" style="edgeStyle=orthogonalEdgeStyle;rounded=0;orthogonalLoop=1;jettySize=auto;html=1;exitX=0.5;exitY=0;exitDx=0;exitDy=0;entryX=0.5;entryY=1;entryDx=0;entryDy=0;" edge="1" parent="1" source="yhknBi5prWKLQfZ3NRB1-29" target="yhknBi5prWKLQfZ3NRB1-35">
          <mxGeometry x="350" y="260" as="geometry" />
        </mxCell>
        <mxCell id="yhknBi5prWKLQfZ3NRB1-33" style="edgeStyle=orthogonalEdgeStyle;rounded=0;orthogonalLoop=1;jettySize=auto;html=1;exitX=0.5;exitY=0;exitDx=0;exitDy=0;entryX=0.5;entryY=1;entryDx=0;entryDy=0;" edge="1" parent="1" source="yhknBi5prWKLQfZ3NRB1-30" target="yhknBi5prWKLQfZ3NRB1-35">
          <mxGeometry x="350" y="260" as="geometry" />
        </mxCell>
        <mxCell id="yhknBi5prWKLQfZ3NRB1-34" style="edgeStyle=orthogonalEdgeStyle;rounded=0;orthogonalLoop=1;jettySize=auto;html=1;exitX=0.25;exitY=0;exitDx=0;exitDy=0;entryX=0.214;entryY=1.068;entryDx=0;entryDy=0;entryPerimeter=0;" edge="1" parent="1" source="yhknBi5prWKLQfZ3NRB1-35" target="yhknBi5prWKLQfZ3NRB1-37">
          <mxGeometry relative="1" as="geometry" />
        </mxCell>
        <mxCell id="yhknBi5prWKLQfZ3NRB1-35" value="ESP32" style="shape=process;whiteSpace=wrap;html=1;backgroundOutline=1;rotation=0;" vertex="1" parent="1">
          <mxGeometry x="380" y="700" width="130" height="40" as="geometry" />
        </mxCell>
        <mxCell id="yhknBi5prWKLQfZ3NRB1-36" style="edgeStyle=orthogonalEdgeStyle;rounded=0;orthogonalLoop=1;jettySize=auto;html=1;exitX=0.625;exitY=1;exitDx=0;exitDy=0;entryX=0.582;entryY=-0.035;entryDx=0;entryDy=0;entryPerimeter=0;" edge="1" parent="1" source="yhknBi5prWKLQfZ3NRB1-37" target="yhknBi5prWKLQfZ3NRB1-35">
          <mxGeometry relative="1" as="geometry">
            <Array as="points">
              <mxPoint x="456" y="640" />
            </Array>
          </mxGeometry>
        </mxCell>
        <mxCell id="yhknBi5prWKLQfZ3NRB1-37" value="Firebase" style="shape=hexagon;perimeter=hexagonPerimeter2;whiteSpace=wrap;html=1;fixedSize=1;size=15;" vertex="1" parent="1">
          <mxGeometry x="395" y="590" width="85" height="50" as="geometry" />
        </mxCell>
        <mxCell id="yhknBi5prWKLQfZ3NRB1-38" style="edgeStyle=orthogonalEdgeStyle;rounded=0;orthogonalLoop=1;jettySize=auto;html=1;exitX=0.75;exitY=1;exitDx=0;exitDy=0;entryX=0.732;entryY=0.012;entryDx=0;entryDy=0;entryPerimeter=0;" edge="1" parent="1" source="yhknBi5prWKLQfZ3NRB1-40" target="yhknBi5prWKLQfZ3NRB1-37">
          <mxGeometry relative="1" as="geometry">
            <Array as="points">
              <mxPoint x="457" y="520" />
            </Array>
          </mxGeometry>
        </mxCell>
        <mxCell id="yhknBi5prWKLQfZ3NRB1-39" style="edgeStyle=orthogonalEdgeStyle;rounded=0;orthogonalLoop=1;jettySize=auto;html=1;exitX=0.25;exitY=0;exitDx=0;exitDy=0;entryX=0.204;entryY=1.062;entryDx=0;entryDy=0;entryPerimeter=0;" edge="1" parent="1" source="yhknBi5prWKLQfZ3NRB1-40" target="yhknBi5prWKLQfZ3NRB1-43">
          <mxGeometry relative="1" as="geometry">
            <mxPoint x="415" y="420" as="targetPoint" />
          </mxGeometry>
        </mxCell>
        <mxCell id="yhknBi5prWKLQfZ3NRB1-40" value="Raspberry Pi" style="shape=parallelogram;perimeter=parallelogramPerimeter;whiteSpace=wrap;html=1;fixedSize=1;" vertex="1" parent="1">
          <mxGeometry x="385" y="460" width="120" height="60" as="geometry" />
        </mxCell>
        <mxCell id="yhknBi5prWKLQfZ3NRB1-41" style="edgeStyle=orthogonalEdgeStyle;rounded=0;orthogonalLoop=1;jettySize=auto;html=1;exitX=0.375;exitY=0;exitDx=0;exitDy=0;entryX=0.25;entryY=1;entryDx=0;entryDy=0;" edge="1" parent="1" source="yhknBi5prWKLQfZ3NRB1-37" target="yhknBi5prWKLQfZ3NRB1-40">
          <mxGeometry x="380" y="260" as="geometry">
            <Array as="points">
              <mxPoint x="415" y="590" />
            </Array>
          </mxGeometry>
        </mxCell>
        <mxCell id="yhknBi5prWKLQfZ3NRB1-42" style="edgeStyle=orthogonalEdgeStyle;rounded=0;orthogonalLoop=1;jettySize=auto;html=1;exitX=0.75;exitY=1;exitDx=0;exitDy=0;entryX=0.71;entryY=0;entryDx=0;entryDy=0;entryPerimeter=0;" edge="1" parent="1" source="yhknBi5prWKLQfZ3NRB1-43" target="yhknBi5prWKLQfZ3NRB1-40">
          <mxGeometry relative="1" as="geometry" />
        </mxCell>
        <mxCell id="yhknBi5prWKLQfZ3NRB1-77" style="edgeStyle=orthogonalEdgeStyle;rounded=0;orthogonalLoop=1;jettySize=auto;html=1;exitX=0.25;exitY=0;exitDx=0;exitDy=0;" edge="1" parent="1" source="yhknBi5prWKLQfZ3NRB1-43">
          <mxGeometry relative="1" as="geometry">
            <mxPoint x="420.17647058823536" y="179.9999999999999" as="targetPoint" />
          </mxGeometry>
        </mxCell>
        <mxCell id="yhknBi5prWKLQfZ3NRB1-43" value="Node-Red" style="rounded=1;whiteSpace=wrap;html=1;" vertex="1" parent="1">
          <mxGeometry x="395" y="360" width="100" height="50" as="geometry" />
        </mxCell>
        <mxCell id="yhknBi5prWKLQfZ3NRB1-44" value="&lt;b&gt;&lt;font style=&quot;font-size: 20px&quot;&gt;Building B&lt;/font&gt;&lt;/b&gt;" style="text;html=1;align=center;verticalAlign=middle;resizable=0;points=[];autosize=1;" vertex="1" parent="1">
          <mxGeometry x="385" y="890" width="120" height="20" as="geometry" />
        </mxCell>
        <mxCell id="yhknBi5prWKLQfZ3NRB1-45" value="" style="group" vertex="1" connectable="0" parent="1">
          <mxGeometry x="280" y="535" width="120" height="50" as="geometry" />
        </mxCell>
        <mxCell id="yhknBi5prWKLQfZ3NRB1-46" value="Communication" style="swimlane;startSize=23;" vertex="1" parent="yhknBi5prWKLQfZ3NRB1-45">
          <mxGeometry x="20" y="4.17" width="100" height="41.66666666666667" as="geometry">
            <mxRectangle width="120" height="23" as="alternateBounds" />
          </mxGeometry>
        </mxCell>
        <mxCell id="yhknBi5prWKLQfZ3NRB1-47" value="Firebase Node" style="text;html=1;align=center;verticalAlign=middle;resizable=0;points=[];autosize=1;strokeColor=none;" vertex="1" parent="yhknBi5prWKLQfZ3NRB1-46">
          <mxGeometry x="5" y="25.000000000000004" width="90" height="20" as="geometry" />
        </mxCell>
        <mxCell id="yhknBi5prWKLQfZ3NRB1-48" value="&lt;span style=&quot;color: rgba(0 , 0 , 0 , 0) ; font-family: monospace ; font-size: 0px&quot;&gt;%3CmxGraphModel%3E%3Croot%3E%3CmxCell%20id%3D%220%22%2F%3E%3CmxCell%20id%3D%221%22%20parent%3D%220%22%2F%3E%3CmxCell%20id%3D%222%22%20value%3D%22Firebase%20Node%22%20style%3D%22text%3Bhtml%3D1%3Balign%3Dcenter%3BverticalAlign%3Dmiddle%3Bresizable%3D0%3Bpoints%3D%5B%5D%3Bautosize%3D1%3B%22%20vertex%3D%221%22%20parent%3D%221%22%3E%3CmxGeometry%20x%3D%22185%22%20y%3D%22550%22%20width%3D%2290%22%20height%3D%2220%22%20as%3D%22geometry%22%2F%3E%3C%2FmxCell%3E%3C%2Froot%3E%3C%2FmxGraphModel%3EF&lt;/span&gt;" style="text;html=1;align=center;verticalAlign=middle;resizable=0;points=[];autosize=1;strokeColor=none;" vertex="1" parent="yhknBi5prWKLQfZ3NRB1-45">
          <mxGeometry x="44" y="25" width="20" height="20" as="geometry" />
        </mxCell>
        <mxCell id="yhknBi5prWKLQfZ3NRB1-49" value="" style="group" vertex="1" connectable="0" parent="1">
          <mxGeometry x="280" y="640" width="120" height="50" as="geometry" />
        </mxCell>
        <mxCell id="yhknBi5prWKLQfZ3NRB1-50" value="Communication" style="swimlane;startSize=23;" vertex="1" parent="yhknBi5prWKLQfZ3NRB1-49">
          <mxGeometry x="20" y="4.17" width="100" height="45" as="geometry">
            <mxRectangle width="120" height="23" as="alternateBounds" />
          </mxGeometry>
        </mxCell>
        <mxCell id="yhknBi5prWKLQfZ3NRB1-51" value="HTTP" style="text;html=1;align=center;verticalAlign=middle;resizable=0;points=[];autosize=1;strokeColor=none;" vertex="1" parent="yhknBi5prWKLQfZ3NRB1-50">
          <mxGeometry x="25" y="25.000000000000004" width="50" height="20" as="geometry" />
        </mxCell>
        <mxCell id="yhknBi5prWKLQfZ3NRB1-52" value="&lt;span style=&quot;color: rgba(0 , 0 , 0 , 0) ; font-family: monospace ; font-size: 0px&quot;&gt;%3CmxGraphModel%3E%3Croot%3E%3CmxCell%20id%3D%220%22%2F%3E%3CmxCell%20id%3D%221%22%20parent%3D%220%22%2F%3E%3CmxCell%20id%3D%222%22%20value%3D%22Firebase%20Node%22%20style%3D%22text%3Bhtml%3D1%3Balign%3Dcenter%3BverticalAlign%3Dmiddle%3Bresizable%3D0%3Bpoints%3D%5B%5D%3Bautosize%3D1%3B%22%20vertex%3D%221%22%20parent%3D%221%22%3E%3CmxGeometry%20x%3D%22185%22%20y%3D%22550%22%20width%3D%2290%22%20height%3D%2220%22%20as%3D%22geometry%22%2F%3E%3C%2FmxCell%3E%3C%2Froot%3E%3C%2FmxGraphModel%3EF&lt;/span&gt;" style="text;html=1;align=center;verticalAlign=middle;resizable=0;points=[];autosize=1;strokeColor=none;" vertex="1" parent="yhknBi5prWKLQfZ3NRB1-49">
          <mxGeometry x="44" y="25" width="20" height="20" as="geometry" />
        </mxCell>
        <mxCell id="yhknBi5prWKLQfZ3NRB1-53" value="" style="endArrow=none;dashed=1;html=1;" edge="1" parent="1">
          <mxGeometry x="600" y="230" width="50" height="50" as="geometry">
            <mxPoint x="600" y="869.9999999999998" as="sourcePoint" />
            <mxPoint x="600" y="859.9999999999998" as="targetPoint" />
            <Array as="points">
              <mxPoint x="840" y="870" />
              <mxPoint x="840" y="230" />
              <mxPoint x="600" y="230" />
            </Array>
          </mxGeometry>
        </mxCell>
        <mxCell id="yhknBi5prWKLQfZ3NRB1-54" value="Sensor" style="ellipse;whiteSpace=wrap;html=1;aspect=fixed;rotation=0;" vertex="1" parent="1">
          <mxGeometry x="650" y="805" width="40" height="40" as="geometry" />
        </mxCell>
        <mxCell id="yhknBi5prWKLQfZ3NRB1-55" value="Sensor" style="ellipse;whiteSpace=wrap;html=1;aspect=fixed;rotation=0;" vertex="1" parent="1">
          <mxGeometry x="705" y="805" width="40" height="40" as="geometry" />
        </mxCell>
        <mxCell id="yhknBi5prWKLQfZ3NRB1-56" value="Sensor" style="ellipse;whiteSpace=wrap;html=1;aspect=fixed;rotation=0;" vertex="1" parent="1">
          <mxGeometry x="760" y="805" width="40" height="40" as="geometry" />
        </mxCell>
        <mxCell id="yhknBi5prWKLQfZ3NRB1-57" style="edgeStyle=orthogonalEdgeStyle;rounded=0;orthogonalLoop=1;jettySize=auto;html=1;exitX=0.5;exitY=0;exitDx=0;exitDy=0;entryX=0.5;entryY=1;entryDx=0;entryDy=0;" edge="1" parent="1" source="yhknBi5prWKLQfZ3NRB1-54" target="yhknBi5prWKLQfZ3NRB1-61">
          <mxGeometry x="630" y="260" as="geometry" />
        </mxCell>
        <mxCell id="yhknBi5prWKLQfZ3NRB1-58" style="edgeStyle=orthogonalEdgeStyle;rounded=0;orthogonalLoop=1;jettySize=auto;html=1;exitX=0.5;exitY=0;exitDx=0;exitDy=0;entryX=0.5;entryY=1;entryDx=0;entryDy=0;" edge="1" parent="1" source="yhknBi5prWKLQfZ3NRB1-55" target="yhknBi5prWKLQfZ3NRB1-61">
          <mxGeometry x="630" y="260" as="geometry" />
        </mxCell>
        <mxCell id="yhknBi5prWKLQfZ3NRB1-59" style="edgeStyle=orthogonalEdgeStyle;rounded=0;orthogonalLoop=1;jettySize=auto;html=1;exitX=0.5;exitY=0;exitDx=0;exitDy=0;entryX=0.5;entryY=1;entryDx=0;entryDy=0;" edge="1" parent="1" source="yhknBi5prWKLQfZ3NRB1-56" target="yhknBi5prWKLQfZ3NRB1-61">
          <mxGeometry x="630" y="260" as="geometry" />
        </mxCell>
        <mxCell id="yhknBi5prWKLQfZ3NRB1-60" style="edgeStyle=orthogonalEdgeStyle;rounded=0;orthogonalLoop=1;jettySize=auto;html=1;exitX=0.25;exitY=0;exitDx=0;exitDy=0;entryX=0.214;entryY=1.068;entryDx=0;entryDy=0;entryPerimeter=0;" edge="1" parent="1" source="yhknBi5prWKLQfZ3NRB1-61" target="yhknBi5prWKLQfZ3NRB1-63">
          <mxGeometry relative="1" as="geometry" />
        </mxCell>
        <mxCell id="yhknBi5prWKLQfZ3NRB1-61" value="ESP32" style="shape=process;whiteSpace=wrap;html=1;backgroundOutline=1;rotation=0;" vertex="1" parent="1">
          <mxGeometry x="660" y="700" width="130" height="40" as="geometry" />
        </mxCell>
        <mxCell id="yhknBi5prWKLQfZ3NRB1-62" style="edgeStyle=orthogonalEdgeStyle;rounded=0;orthogonalLoop=1;jettySize=auto;html=1;exitX=0.625;exitY=1;exitDx=0;exitDy=0;entryX=0.582;entryY=-0.035;entryDx=0;entryDy=0;entryPerimeter=0;" edge="1" parent="1" source="yhknBi5prWKLQfZ3NRB1-63" target="yhknBi5prWKLQfZ3NRB1-61">
          <mxGeometry relative="1" as="geometry">
            <Array as="points">
              <mxPoint x="736" y="640" />
            </Array>
          </mxGeometry>
        </mxCell>
        <mxCell id="yhknBi5prWKLQfZ3NRB1-63" value="Firebase" style="shape=hexagon;perimeter=hexagonPerimeter2;whiteSpace=wrap;html=1;fixedSize=1;size=15;" vertex="1" parent="1">
          <mxGeometry x="675" y="590" width="85" height="50" as="geometry" />
        </mxCell>
        <mxCell id="yhknBi5prWKLQfZ3NRB1-64" style="edgeStyle=orthogonalEdgeStyle;rounded=0;orthogonalLoop=1;jettySize=auto;html=1;exitX=0.75;exitY=1;exitDx=0;exitDy=0;entryX=0.732;entryY=0.012;entryDx=0;entryDy=0;entryPerimeter=0;" edge="1" parent="1" source="yhknBi5prWKLQfZ3NRB1-66" target="yhknBi5prWKLQfZ3NRB1-63">
          <mxGeometry relative="1" as="geometry">
            <Array as="points">
              <mxPoint x="737" y="520" />
            </Array>
          </mxGeometry>
        </mxCell>
        <mxCell id="yhknBi5prWKLQfZ3NRB1-65" style="edgeStyle=orthogonalEdgeStyle;rounded=0;orthogonalLoop=1;jettySize=auto;html=1;exitX=0.25;exitY=0;exitDx=0;exitDy=0;entryX=0.204;entryY=1.062;entryDx=0;entryDy=0;entryPerimeter=0;" edge="1" parent="1" source="yhknBi5prWKLQfZ3NRB1-66" target="yhknBi5prWKLQfZ3NRB1-69">
          <mxGeometry relative="1" as="geometry">
            <mxPoint x="695" y="420" as="targetPoint" />
          </mxGeometry>
        </mxCell>
        <mxCell id="yhknBi5prWKLQfZ3NRB1-66" value="Raspberry Pi" style="shape=parallelogram;perimeter=parallelogramPerimeter;whiteSpace=wrap;html=1;fixedSize=1;" vertex="1" parent="1">
          <mxGeometry x="665" y="460" width="120" height="60" as="geometry" />
        </mxCell>
        <mxCell id="yhknBi5prWKLQfZ3NRB1-67" style="edgeStyle=orthogonalEdgeStyle;rounded=0;orthogonalLoop=1;jettySize=auto;html=1;exitX=0.375;exitY=0;exitDx=0;exitDy=0;entryX=0.25;entryY=1;entryDx=0;entryDy=0;" edge="1" parent="1" source="yhknBi5prWKLQfZ3NRB1-63" target="yhknBi5prWKLQfZ3NRB1-66">
          <mxGeometry x="660" y="260" as="geometry">
            <Array as="points">
              <mxPoint x="695" y="590" />
            </Array>
          </mxGeometry>
        </mxCell>
        <mxCell id="yhknBi5prWKLQfZ3NRB1-68" style="edgeStyle=orthogonalEdgeStyle;rounded=0;orthogonalLoop=1;jettySize=auto;html=1;exitX=0.75;exitY=1;exitDx=0;exitDy=0;entryX=0.71;entryY=0;entryDx=0;entryDy=0;entryPerimeter=0;" edge="1" parent="1" source="yhknBi5prWKLQfZ3NRB1-69" target="yhknBi5prWKLQfZ3NRB1-66">
          <mxGeometry relative="1" as="geometry" />
        </mxCell>
        <mxCell id="yhknBi5prWKLQfZ3NRB1-69" value="Node-Red" style="rounded=1;whiteSpace=wrap;html=1;" vertex="1" parent="1">
          <mxGeometry x="675" y="360" width="100" height="50" as="geometry" />
        </mxCell>
        <mxCell id="yhknBi5prWKLQfZ3NRB1-70" value="&lt;b&gt;&lt;font style=&quot;font-size: 20px&quot;&gt;Building C&lt;/font&gt;&lt;/b&gt;" style="text;html=1;align=center;verticalAlign=middle;resizable=0;points=[];autosize=1;" vertex="1" parent="1">
          <mxGeometry x="665" y="890" width="120" height="20" as="geometry" />
        </mxCell>
        <mxCell id="yhknBi5prWKLQfZ3NRB1-71" value="Communication" style="swimlane;startSize=23;" vertex="1" parent="1">
          <mxGeometry x="580" y="539.17" width="100" height="41.66666666666667" as="geometry">
            <mxRectangle width="120" height="23" as="alternateBounds" />
          </mxGeometry>
        </mxCell>
        <mxCell id="yhknBi5prWKLQfZ3NRB1-72" value="Firebase Node" style="text;html=1;align=center;verticalAlign=middle;resizable=0;points=[];autosize=1;strokeColor=none;" vertex="1" parent="yhknBi5prWKLQfZ3NRB1-71">
          <mxGeometry x="5" y="25.000000000000004" width="90" height="20" as="geometry" />
        </mxCell>
        <mxCell id="yhknBi5prWKLQfZ3NRB1-73" value="&lt;span style=&quot;color: rgba(0 , 0 , 0 , 0) ; font-family: monospace ; font-size: 0px&quot;&gt;%3CmxGraphModel%3E%3Croot%3E%3CmxCell%20id%3D%220%22%2F%3E%3CmxCell%20id%3D%221%22%20parent%3D%220%22%2F%3E%3CmxCell%20id%3D%222%22%20value%3D%22Firebase%20Node%22%20style%3D%22text%3Bhtml%3D1%3Balign%3Dcenter%3BverticalAlign%3Dmiddle%3Bresizable%3D0%3Bpoints%3D%5B%5D%3Bautosize%3D1%3B%22%20vertex%3D%221%22%20parent%3D%221%22%3E%3CmxGeometry%20x%3D%22185%22%20y%3D%22550%22%20width%3D%2290%22%20height%3D%2220%22%20as%3D%22geometry%22%2F%3E%3C%2FmxCell%3E%3C%2Froot%3E%3C%2FmxGraphModel%3EF&lt;/span&gt;" style="text;html=1;align=center;verticalAlign=middle;resizable=0;points=[];autosize=1;strokeColor=none;" vertex="1" parent="1">
          <mxGeometry x="604" y="560" width="20" height="20" as="geometry" />
        </mxCell>
        <mxCell id="yhknBi5prWKLQfZ3NRB1-74" value="Communication" style="swimlane;startSize=23;" vertex="1" parent="1">
          <mxGeometry x="580" y="644.17" width="100" height="45" as="geometry">
            <mxRectangle width="120" height="23" as="alternateBounds" />
          </mxGeometry>
        </mxCell>
        <mxCell id="yhknBi5prWKLQfZ3NRB1-75" value="HTTP" style="text;html=1;align=center;verticalAlign=middle;resizable=0;points=[];autosize=1;strokeColor=none;" vertex="1" parent="yhknBi5prWKLQfZ3NRB1-74">
          <mxGeometry x="25" y="25.000000000000004" width="50" height="20" as="geometry" />
        </mxCell>
        <mxCell id="yhknBi5prWKLQfZ3NRB1-76" value="&lt;span style=&quot;color: rgba(0 , 0 , 0 , 0) ; font-family: monospace ; font-size: 0px&quot;&gt;%3CmxGraphModel%3E%3Croot%3E%3CmxCell%20id%3D%220%22%2F%3E%3CmxCell%20id%3D%221%22%20parent%3D%220%22%2F%3E%3CmxCell%20id%3D%222%22%20value%3D%22Firebase%20Node%22%20style%3D%22text%3Bhtml%3D1%3Balign%3Dcenter%3BverticalAlign%3Dmiddle%3Bresizable%3D0%3Bpoints%3D%5B%5D%3Bautosize%3D1%3B%22%20vertex%3D%221%22%20parent%3D%221%22%3E%3CmxGeometry%20x%3D%22185%22%20y%3D%22550%22%20width%3D%2290%22%20height%3D%2220%22%20as%3D%22geometry%22%2F%3E%3C%2FmxCell%3E%3C%2Froot%3E%3C%2FmxGraphModel%3EF&lt;/span&gt;" style="text;html=1;align=center;verticalAlign=middle;resizable=0;points=[];autosize=1;strokeColor=none;" vertex="1" parent="1">
          <mxGeometry x="604" y="665" width="20" height="20" as="geometry" />
        </mxCell>
      </root>
    </mxGraphModel>
  </diagram>
</mxfile>
